<?xml version="1.0" encoding="UTF-8"?>
<svg width="1200pt" height="1200pt" version="1.1" viewBox="0 0 1200 1200" xmlns="http://www.w3.org/2000/svg">
 <g>
  <path d="m876.42 831c0 27.039-21.922 48.961-48.961 48.961-27.039 0-48.961-21.922-48.961-48.961s21.922-48.961 48.961-48.961c27.039 0 48.961 21.922 48.961 48.961"/>
  <path d="m1200.1 691.83c0.035156-34.531-7.5781-68.645-22.289-99.883-14.715-31.238-36.168-58.832-62.812-80.797-7.5352-44.035-20.73-86.914-39.258-127.57 34.035-27.191 51.102-70.391 44.844-113.5s-34.902-79.676-75.266-96.07c-40.363-16.395-86.391-10.16-120.94 16.379-36.711-29.129-77.176-53.18-120.3-71.508-24.969-44.086-63.551-78.895-109.96-99.211-46.414-20.316-98.164-25.043-147.49-13.473-49.328 11.57-93.578 38.812-126.12 77.645-28.852-23.168-66.613-32.082-102.78-24.266-36.164 7.8125-66.875 31.527-83.586 64.543-16.707 33.012-17.633 71.801-2.5156 105.57-27.578 27.43-52.016 57.844-72.867 90.68-3.375-0.23438-6.7969-0.375-10.242-0.375-44.43 0-86.527 19.867-114.78 54.16-28.246 34.289-39.684 79.414-31.18 123.02 8.5078 43.609 36.062 81.129 75.129 102.29v0.53906c-0.15625 121.38 42.125 238.99 119.53 332.48-1.5547 10.988-2.3359 22.066-2.3438 33.164 0.019531 47.391 14.402 93.664 41.258 132.71 26.852 39.051 64.914 69.039 109.16 86.016 44.246 16.977 92.598 20.145 138.68 9.0781 46.082-11.066 87.727-35.844 119.44-71.059 95.676-0.44922 189.38-27.293 270.77-77.578 27.289 30.539 68.012 45.457 108.57 39.77 40.559-5.6875 75.609-31.23 93.445-68.098 17.836-36.867 16.109-80.199-4.6016-115.53 38.66-19.574 71.137-49.48 93.82-86.398 22.688-36.918 34.691-79.402 34.688-122.73zm-885.23-389.74c5.8359-6.4531 13.992-10.328 22.684-10.766 8.6875-0.44141 17.195 2.5898 23.652 8.4219 11.223 10.043 26.262 14.703 41.199 12.766 14.934-1.9375 28.289-10.281 36.578-22.852 8.293-12.574 10.699-28.133 6.5977-42.625-2.5586-8.4258-1.6211-17.523 2.5977-25.254 4.2188-7.7266 11.363-13.434 19.832-15.84 8.4727-2.4062 17.551-1.3086 25.203 3.0469 7.6523 4.3594 13.23 11.605 15.484 20.117 9.7773 34.379 3.3711 71.34-17.414 100.42-20.781 29.082-53.676 47.113-89.367 48.996-2.1094 0-4.1953 0.16406-6.2812 0.16406-28.988 0.039062-56.953-10.715-78.445-30.164-6.4805-5.8398-10.367-14.02-10.801-22.734-0.43359-8.7109 2.6172-17.238 8.4805-23.695zm107.81 606.26c-39.258 0.003906-77.637-11.633-110.28-33.441s-58.09-52.805-73.117-89.074c-15.027-36.27-18.961-76.18-11.305-114.69 7.6562-38.504 26.559-73.875 54.316-101.64 27.758-27.762 63.125-46.668 101.63-54.328 38.508-7.6602 78.418-3.7305 114.69 11.289 36.273 15.023 67.273 40.465 89.086 73.109 21.812 32.641 33.453 71.02 33.453 110.28-0.0625 52.613-20.984 103.05-58.18 140.26-37.195 37.211-87.629 58.148-140.24 58.23zm404.7 37.242c-30.398 0.007812-59.555-12.066-81.055-33.559-21.496-21.492-33.574-50.645-33.578-81.043s12.074-59.555 33.566-81.051c21.496-21.492 50.652-33.57 81.051-33.566 30.398 0.003906 59.551 12.082 81.043 33.578 21.492 21.5 33.566 50.656 33.559 81.055-0.039062 30.371-12.113 59.488-33.586 80.969-21.473 21.477-50.582 33.566-80.953 33.617zm-24.914-377.18c-38.305 0.011719-75.047-15.195-102.14-42.273-27.094-27.078-42.32-63.812-42.328-102.12s15.203-75.047 42.285-102.14c27.082-27.09 63.816-42.312 102.12-42.316s75.043 15.211 102.13 42.293c27.086 27.086 42.305 63.824 42.305 102.13-0.042969 38.281-15.266 74.984-42.332 102.06-27.062 27.07-63.762 42.309-102.04 42.363z"/>
  <path d="m881.3 423.98c0 43.52-35.277 78.797-78.797 78.797s-78.797-35.277-78.797-78.797 35.277-78.797 78.797-78.797 78.797 35.277 78.797 78.797"/>
  <path d="m555.63 709.85c0 73.379-59.488 132.87-132.87 132.87s-132.87-59.488-132.87-132.87c0-73.379 59.488-132.87 132.87-132.87s132.87 59.488 132.87 132.87"/>
 </g>
</svg>
