<?xml version="1.0" encoding="UTF-8"?>
<svg id="Layer_1" data-name="Layer 1" xmlns="http://www.w3.org/2000/svg" viewBox="0 0 1500 881.23">
  <defs>
    <style>
      .cls-1 {
        fill: #2e8555;
      }
    </style>
  </defs>
  <path class="cls-1" d="M643.84,580.25l-24.93-14.4c-33.05,32.93-78.6,53.32-128.83,53.32-100.69,0-182.62-81.92-182.62-182.62s81.92-182.62,182.62-182.62c56.71,0,107.47,25.99,140.99,66.69l12.77-7.37,36.25-20.93c-43.63-57.34-112.56-94.45-190.01-94.45-131.61,0-238.69,107.07-238.69,238.69,0,57.7,20.82,112.38,58.61,153.95l6.58,7.24-21.42,21.42h-30.64l-181.23,181.23,42.93,42.93,181.23-181.23v-30.64l21.42-21.42,7.24,6.58c41.58,37.8,96.26,58.61,153.96,58.61,71.03,0,134.88-31.22,178.64-80.63l-24.88-14.36Z"/>
  <g>
    <circle class="cls-1" cx="601.77" cy="467.31" r="31.39"/>
    <path class="cls-1" d="M601.77,508.51c-22.72,0-41.2-18.48-41.2-41.2,0-12.38,5.5-23.5,14.18-31.06-7.54-3.6-15.97-5.61-24.88-5.61-31.93,0-57.81,25.88-57.81,57.81s25.88,57.81,57.81,57.81c24.9,0,46.12-15.74,54.26-37.81-.78.04-1.56.07-2.35.07Z"/>
    <circle class="cls-1" cx="591.39" cy="352.06" r="20.93"/>
    <path class="cls-1" d="M534.54,402.11c3.58,5.65,6.23,11.85,7.85,18.34,2.38-.25,4.77-.38,7.16-.38,12.08,0,23.93,3.22,34.35,9.34,12.42-5.99,27.01-5.4,38.91,1.57,9.7-18.78,5.59-41.73-10.02-55.98-12.59,11.82-32.38,11.2-44.21-1.39-2.11-2.24-3.87-4.79-5.24-7.55-15.26,6.12-26.19,19.8-28.8,36.04Z"/>
    <path class="cls-1" d="M460.6,341.6c-7.12,0-14.02-2.43-19.57-6.88-15.8,19.71-21.02,45.87-13.99,70.13,17.06-30.16,55.33-40.79,85.49-23.73,5.04,2.85,9.67,6.39,13.74,10.51,5.38-16.42,17.87-29.54,34.01-35.72-.92-7.01.61-14.13,4.35-20.14-14.82-19.36-37.8-30.74-62.18-30.79-3.62.03-7.23.31-10.81.83,2.56,17.02-9.16,32.89-26.18,35.44-1.61.24-3.23.36-4.86.35Z"/>
    <path class="cls-1" d="M481.53,488.08c.06-30.82,20.82-57.75,50.61-65.65-5.99-23.02-26.82-39.06-50.61-38.98-24.82.14-46.18,17.6-51.24,41.91,25.92.51,46.51,21.94,46,47.86-.1,4.85-.94,9.66-2.51,14.25,2.57.4,5.16.6,7.75.62Z"/>
    <path class="cls-1" d="M408.28,393.91c1.98.02,3.97.15,5.94.39-.45-3.6-.69-7.22-.71-10.85,0-18.78,5.96-37.07,17.03-52.24-.44,0-.89-.07-1.33-.07-25.92-.08-47,20.87-47.09,46.79-.02,7.15,1.59,14.21,4.71,20.64,6.74-3.06,14.05-4.65,21.45-4.65Z"/>
    <circle class="cls-1" cx="460.6" cy="310.21" r="20.93"/>
    <path class="cls-1" d="M482.41,498.51c-.3,0-.59.04-.88.04-4.16-.04-8.3-.5-12.37-1.36-8.02,12.92-21.78,21.16-36.95,22.14,1.94,4.82,4.77,9.24,8.32,13.04,10.18-13.99,29.77-17.08,43.76-6.9,4.53,3.29,8.09,7.74,10.31,12.87,1.82-1.22,3.54-2.59,5.14-4.09-9.22-9.91-15.26-22.36-17.34-35.74Z"/>
    <path class="cls-1" d="M377.79,403.81c-3.91-7.78-5.99-16.36-6.09-25.06-12.19,2.49-20.94,13.2-20.96,25.64-.02,7.96,3.63,15.48,9.88,20.4,3.8-8.37,9.72-15.6,17.18-20.97Z"/>
    <path class="cls-1" d="M497.13,549.08c.03.6.09,1.18.09,1.78,0,2.8-.39,5.59-1.15,8.29,14.58,11.01,35.05,9.59,47.97-3.34-13.37-1.08-26.11-6.1-36.62-14.43-3.1,2.98-6.55,5.57-10.29,7.7Z"/>
    <path class="cls-1" d="M383.44,483.66c-2.53,3.01-4.11,6.84-4.11,11.08,0,9.57,7.76,17.33,17.33,17.33,1.98,0,3.87-.35,5.65-.96-9.27-6.46-16.08-16.16-18.86-27.44Z"/>
    <circle class="cls-1" cx="429.21" cy="472.39" r="36.62"/>
    <circle class="cls-1" cx="465.83" cy="550.86" r="20.93"/>
    <path class="cls-1" d="M356.86,436.02c.63-3.2,1.57-6.27,2.74-9.21-13.92,1.2-24.85,12.86-24.85,27.09,0,15.03,12.18,27.21,27.21,27.21,2.25,0,4.42-.3,6.51-.82-10.39-12.04-14.8-28.21-11.62-44.27Z"/>
    <path class="cls-1" d="M419.52,426.31c.36-2.44.86-4.86,1.51-7.24-1.95-4.47-3.52-9.1-4.71-13.84-22.63-4.49-44.61,10.22-49.1,32.85-3.08,15.55,2.9,31.51,15.46,41.2-3.86-24.66,12.37-48,36.84-52.97Z"/>
    <path class="cls-1" d="M435.67,542.27c-6.94-6.39-12.02-14.53-14.73-23.57-6.13-1.09-11.97-3.39-17.2-6.77-4.05,22.16,10.17,43.55,32.17,48.4-1.87-5.86-1.95-12.15-.24-18.06Z"/>
    <path class="cls-1" d="M392.59,522.31c-13.46-1.98-23.84-13.57-23.84-27.57,0-3.95.88-7.85,2.53-11.45-2.46-2.44-4.64-5.09-6.54-7.9-6.27,6.57-10.15,15.45-10.15,25.26,0,20.23,16.4,36.62,36.62,36.62,1.46,0,2.9-.11,4.32-.28-1.65-4.67-2.68-9.6-2.94-14.68Z"/>
  </g>
  <g>
    <path class="cls-1" d="M789.79,342.26h36.84v146.8h-36.84v-15.52c-7.19,6.84-14.4,11.76-21.63,14.77-7.23,3.01-15.07,4.52-23.52,4.52-18.96,0-35.36-7.35-49.19-22.06-13.84-14.71-20.75-32.99-20.75-54.85s6.69-41.24,20.08-55.73c13.39-14.48,29.65-21.72,48.79-21.72,8.8,0,17.07,1.67,24.8,4.99,7.73,3.33,14.87,8.32,21.43,14.98v-16.19ZM751.07,372.49c-11.39,0-20.84,4.03-28.38,12.08-7.53,8.05-11.3,18.37-11.3,30.97s3.83,23.12,11.5,31.3c7.67,8.19,17.1,12.28,28.31,12.28s21.16-4.02,28.78-12.08c7.62-8.05,11.43-18.6,11.43-31.64s-3.81-23.12-11.43-31.03c-7.62-7.91-17.26-11.87-28.91-11.87Z"/>
    <path class="cls-1" d="M863.87,342.26h36.84v15.04c8.35-7.04,15.92-11.94,22.7-14.69,6.78-2.75,13.72-4.13,20.82-4.13,14.55,0,26.9,5.08,37.05,15.25,8.53,8.64,12.8,21.41,12.8,38.32v97.01h-36.43v-64.29c0-17.52-.79-29.15-2.36-34.9-1.57-5.75-4.31-10.13-8.21-13.14-3.9-3.01-8.73-4.52-14.47-4.52-7.45,0-13.84,2.49-19.18,7.48-5.34,4.99-9.04,11.88-11.11,20.69-1.08,4.58-1.61,14.51-1.61,29.78v58.9h-36.84v-146.8Z"/>
    <path class="cls-1" d="M1173.39,371.95l-30.67,16.87c-5.76-6.03-11.46-10.21-17.09-12.55-5.63-2.34-12.23-3.51-19.79-3.51-13.78,0-24.93,4.11-33.44,12.33-8.51,8.22-12.77,18.75-12.77,31.59s4.1,22.68,12.29,30.58c8.2,7.9,18.96,11.85,32.29,11.85,16.48,0,29.32-5.62,38.5-16.87l29.05,19.89c-15.74,20.48-37.96,30.71-66.66,30.71-25.82,0-46.03-7.64-60.65-22.94-14.62-15.29-21.93-33.19-21.93-53.7,0-14.21,3.55-27.3,10.66-39.26,7.1-11.96,17.02-21.36,29.75-28.2,12.73-6.83,26.96-10.25,42.71-10.25,14.57,0,27.66,2.9,39.26,8.7,11.6,5.8,21.09,14.06,28.47,24.76Z"/>
    <path class="cls-1" d="M1353.66,426.32h-118.33c1.71,10.44,6.27,18.73,13.7,24.89,7.42,6.16,16.89,9.24,28.4,9.24,13.76,0,25.59-4.81,35.49-14.44l31.03,14.57c-7.74,10.98-17,19.09-27.8,24.35-10.79,5.26-23.61,7.89-38.46,7.89-23.03,0-41.78-7.26-56.27-21.79-14.48-14.53-21.72-32.72-21.72-54.58s7.22-41,21.66-55.79c14.44-14.8,32.54-22.2,54.31-22.2,23.12,0,41.92,7.4,56.4,22.2,14.48,14.8,21.72,34.34,21.72,58.63l-.13,7.02ZM1316.82,397.31c-2.43-8.18-7.23-14.84-14.4-19.97-7.16-5.13-15.47-7.69-24.94-7.69-10.27,0-19.28,2.88-27.03,8.64-4.87,3.6-9.37,9.94-13.52,19.02h79.88Z"/>
    <path class="cls-1" d="M1374.84,342.26h31.57v18.49c3.42-7.29,7.96-12.82,13.63-16.6s11.87-5.67,18.62-5.67c4.77,0,9.76,1.26,14.98,3.78l-11.47,31.71c-4.32-2.16-7.87-3.24-10.66-3.24-5.67,0-10.46,3.51-14.37,10.52-3.91,7.02-5.87,20.78-5.87,41.29l.13,7.15v59.37h-36.57v-146.8Z"/>
  </g>
  <g>
    <path class="cls-1" d="M715.4,520.82h8.9l-11.94,88.3h-8.9l11.94-88.3Z"/>
    <path class="cls-1" d="M740.2,543.81h8.05l-1.34,10.16c6.64-7.89,14.36-11.84,23.17-11.84,6.76,0,12.21,2.07,16.35,6.21,4.14,4.14,6.22,9.71,6.22,16.71,0,2.8-.45,7.5-1.34,14.11l-4.05,29.96h-8.24l4.05-29.95c.87-6.4,1.3-11.13,1.3-14.18,0-4.57-1.39-8.27-4.16-11.08-2.77-2.81-6.41-4.21-10.91-4.21s-8.53,1.14-12.33,3.42c-3.8,2.28-6.74,5.37-8.83,9.27-2.09,3.9-3.69,10.07-4.81,18.51l-3.74,28.22h-8.24l8.83-65.31Z"/>
    <path class="cls-1" d="M843.85,520.82l-1.14,7.98c-3.07-2.88-5.95-4.32-8.65-4.32-1.72,0-3.19.81-4.42,2.44-1.23,1.63-2.19,4.92-2.88,9.88l-.94,7.01h13.72l-.9,7.32h-13.8l-7.79,57.98h-8.24l7.84-57.98h-7.84l.9-7.32h7.93l.78-5.76c.97-6.76,2.01-11.29,3.1-13.57,1.1-2.28,2.72-4.11,4.87-5.49,2.15-1.38,4.52-2.07,7.12-2.07,3.41,0,6.86,1.3,10.35,3.9Z"/>
    <path class="cls-1" d="M883.29,542.13c5.56,0,10.66,1.33,15.31,3.99,4.64,2.66,8.26,6.36,10.86,11.1,2.6,4.74,3.9,10.11,3.9,16.12,0,6.84-1.66,13.2-4.98,19.06-3.32,5.86-7.78,10.39-13.39,13.6-5.6,3.2-11.95,4.8-19.03,4.8-8.76,0-15.98-2.87-21.64-8.61-5.66-5.74-8.49-13.06-8.49-21.94,0-6.96,1.66-13.39,4.98-19.27,3.32-5.88,7.87-10.49,13.66-13.84,5.78-3.34,12.05-5.01,18.82-5.01ZM883.08,550.12c-5.21,0-10.11,1.3-14.69,3.9-4.59,2.6-8.11,6.17-10.58,10.71-2.46,4.54-3.7,9.55-3.7,15.04,0,6.88,2.12,12.48,6.37,16.78,4.25,4.3,9.74,6.45,16.47,6.45,5.25,0,10-1.25,14.27-3.75,4.27-2.5,7.66-6.11,10.19-10.83,2.52-4.72,3.79-9.78,3.79-15.19,0-4.52-.94-8.53-2.82-12.04-1.88-3.5-4.55-6.22-7.99-8.16-3.45-1.94-7.21-2.91-11.3-2.91Z"/>
    <path class="cls-1" d="M930.9,543.81h8.42l-1.14,8.22c2.24-3.12,4.95-5.55,8.11-7.29,3.17-1.74,6.41-2.61,9.74-2.61,2.36,0,4.83.56,7.39,1.68l-3.96,7.68c-2.08-.84-3.82-1.26-5.21-1.26-2.92,0-5.8,1.02-8.66,3.06-2.86,2.04-5.17,5.01-6.95,8.92-1.78,3.9-3.28,10.32-4.51,19.24l-3.82,27.66h-8.24l8.83-65.31Z"/>
    <path class="cls-1" d="M970.94,543.81h8.21l-1.23,9.25c2.53-3.4,5.76-6.07,9.7-8.01,3.94-1.94,7.89-2.91,11.87-2.91,4.94,0,9.32,1.46,13.13,4.38,2.93,2.28,5.12,5.68,6.57,10.2,2.97-4.64,6.64-8.23,10.99-10.77s8.79-3.81,13.28-3.81c6.06,0,11.04,1.94,14.94,5.82,3.9,3.88,5.84,8.9,5.84,15.05,0,2.8-.26,6.23-.79,10.28l-4.64,35.84h-8.24l4.24-31.33c.89-6.56,1.33-11.37,1.33-14.41,0-3.8-1.25-6.94-3.75-9.42-2.5-2.48-5.79-3.72-9.88-3.72-4.32,0-8.35,1.35-12.07,4.05-3.72,2.7-6.37,5.89-7.93,9.56-1.56,3.68-2.73,8.32-3.51,13.94l-4.33,31.33h-8.34l4.85-35.83c.51-3.81.77-6.93.77-9.37,0-4.2-1.25-7.56-3.75-10.08-2.5-2.52-5.77-3.78-9.8-3.78-3.39,0-6.64.79-9.74,2.37-3.11,1.58-5.65,3.65-7.62,6.21-1.98,2.56-3.45,5.73-4.43,9.51-.97,3.78-1.66,7.19-2.07,10.24l-4.1,30.73h-8.33l8.83-65.31Z"/>
    <path class="cls-1" d="M1142.3,609.12h-8.47l1.29-9.82c-7.55,7.67-16.18,11.5-25.9,11.5-8.85,0-16.12-2.86-21.82-8.58-5.7-5.72-8.55-13.09-8.55-22.09,0-10.4,3.71-19.34,11.15-26.8,7.43-7.46,16.17-11.19,26.23-11.19,5.45,0,10.22,1.14,14.33,3.42,4.11,2.28,7.56,5.83,10.36,10.67l1.51-12.4h8.71l-8.83,65.31ZM1110.16,603.12c5.38,0,10.29-1.27,14.71-3.81,4.43-2.54,7.93-6.2,10.52-10.96,2.59-4.77,3.89-9.95,3.89-15.56,0-6.75-2.13-12.25-6.4-16.49-4.27-4.24-9.81-6.36-16.62-6.36-8.01,0-14.87,2.9-20.57,8.7-5.7,5.8-8.55,12.93-8.55,21.37,0,6.92,2.13,12.51,6.4,16.75,4.27,4.24,9.81,6.36,16.62,6.36Z"/>
    <path class="cls-1" d="M1180.85,519.38h8.22l-3.25,24.43h13.15l-.96,7.32h-13.17l-7.73,57.98h-8.4l7.84-57.98h-11.2l1.02-7.32h11.17l3.3-24.43Z"/>
    <path class="cls-1" d="M1210.56,543.81h7.93l-8.53,65.31h-8.24l8.83-65.31ZM1217.15,516.92c1.84,0,3.42.66,4.74,1.98,1.32,1.32,1.98,2.9,1.98,4.74s-.66,3.47-1.98,4.77c-1.32,1.3-2.9,1.95-4.74,1.95s-3.47-.65-4.77-1.95c-1.3-1.3-1.95-2.89-1.95-4.77s.65-3.42,1.95-4.74c1.3-1.32,2.89-1.98,4.77-1.98Z"/>
    <path class="cls-1" d="M1297.4,557.92l-6.9,4.02c-4.84-7.84-12.23-11.76-22.18-11.76-5.76,0-11.01,1.28-15.77,3.84-4.76,2.56-8.47,6.12-11.15,10.68-2.68,4.56-4.02,9.44-4.02,14.65,0,4.6,1,8.72,3,12.37,2,3.64,4.81,6.44,8.42,8.4,3.62,1.96,7.88,2.94,12.8,2.94s9.84-1,14.42-3c4.58-2,8.14-4.58,10.7-7.74l6.9,4.86c-4.32,4.72-9.01,8.17-14.08,10.35-5.06,2.18-10.93,3.27-17.62,3.27-10.32,0-18.38-2.81-24.16-8.43-5.78-5.62-8.67-13.12-8.67-22.48,0-10.4,3.79-19.3,11.37-26.68,7.58-7.38,16.88-11.07,27.88-11.07,6.6,0,12.42,1.39,17.47,4.17,5.04,2.78,8.9,6.65,11.58,11.61Z"/>
    <path class="cls-1" d="M1346.7,551.14l-4.56,6.78c-3.68-5.24-8.05-7.86-13.09-7.86-2.88,0-5.35.94-7.39,2.82-2.04,1.88-3.06,3.96-3.06,6.24,0,1.76.62,3.44,1.86,5.04,1.2,1.6,3.94,3.78,8.22,6.54,6.24,4.04,10.36,7.56,12.37,10.56,1.96,3.04,2.94,6.54,2.94,10.5,0,5.48-1.91,10.02-5.73,13.63-3.82,3.6-8.8,5.4-14.92,5.4-8.09,0-14.89-3.58-20.42-10.74l5.1-5.94c4.84,5.88,10.11,8.82,15.79,8.82,3.24,0,6.07-1.14,8.47-3.42,2.4-2.28,3.6-4.92,3.6-7.92,0-2.44-.9-4.78-2.7-7.02-1.16-1.44-4.28-3.88-9.36-7.33-5.48-3.76-9.08-6.89-10.8-9.37-1.72-2.44-2.58-5.2-2.58-8.28,0-4.84,1.82-8.96,5.46-12.36,3.64-3.4,8.25-5.1,13.81-5.1,3.28,0,6.25.66,8.92,1.98s5.35,3.66,8.08,7.02Z"/>
  </g>
  <g>
    <path class="cls-1" d="M207.84,598.59c-5.94-9.51-19.03-1.19-13.07,7.17,2.38,4.75,4.75,8.32,8.31,13.07,4.76,8.32,17.85,0,11.88-8.32-2.37-3.56-4.75-8.36-7.13-11.92Z"/>
    <path class="cls-1" d="M241.15,225.13l9.51-10.69c7.13-7.14-3.56-17.87-10.7-10.74-3.59,3.6-7.15,7.17-10.72,11.92-5.94,5.94,3.56,17.83,11.9,9.51Z"/>
    <path class="cls-1" d="M206.65,272.7c2.38-3.57,5.94-8.32,8.32-11.89,4.77-9.5-8.32-16.68-13.07-8.32-2.38,4.76-4.75,8.32-8.32,13.08-4.77,8.32,8.32,15.45,13.07,7.13Z"/>
    <path class="cls-1" d="M562.28,120.48c4.76,1.19,9.51,2.37,14.26,4.75,8.36,2.38,14.31-11.92,4.76-15.49-4.76-1.19-10.7-2.37-15.45-3.56-10.69-2.38-11.89,13.11-3.57,14.3Z"/>
    <path class="cls-1" d="M618.17,139.49c4.76,2.38,9.55,4.76,13.12,7.13,8.32,3.57,16.63-8.31,7.12-14.26-4.75-2.37-9.5-4.75-14.3-5.94-9.5-4.75-14.26,9.51-5.94,13.07Z"/>
    <path class="cls-1" d="M167.4,384.52c1.18-5.98,2.38-10.74,2.38-15.49,2.37-9.51-13.07-11.88-14.26-2.37-1.19,4.75-2.38,9.5-2.38,15.44-2.38,9.55,13.07,11.93,14.26,2.42Z"/>
    <path class="cls-1" d="M163.84,442.8v-14.26c0-10.74-15.45-10.74-15.45,0v15.44c0,8.32,15.45,9.51,15.45-1.18Z"/>
    <path class="cls-1" d="M182.86,543.88c-4.75-9.51-17.84-3.56-14.28,5.94,1.19,4.76,3.57,9.55,4.78,14.31,3.57,9.5,17.82,3.56,14.26-5.99-1.19-4.75-3.57-9.5-4.76-14.26Z"/>
    <path class="cls-1" d="M170.97,502.25c-1.19-4.76-2.38-10.7-3.57-15.45-1.19-9.51-16.64-7.13-14.26,2.37,0,5.95,1.19,10.7,2.38,15.45,1.19,9.51,16.63,8.32,15.45-2.37Z"/>
    <path class="cls-1" d="M173.36,307.2c-2.39,4.76-3.58,9.51-5.96,14.26-3.56,9.51,11.91,15.49,14.28,4.76,2.37-3.57,3.56-8.32,5.94-13.07,3.56-9.51-10.69-15.45-14.26-5.95Z"/>
    <path class="cls-1" d="M690.75,165.67c-3.57-3.57-8.32-5.99-11.89-9.55-9.55-5.94-16.67,8.36-8.36,13.12,3.61,2.37,7.17,4.75,11.93,8.31,9.5,5.95,15.43-8.31,8.32-11.88Z"/>
    <path class="cls-1" d="M520.65,97.86h-15.45c-11.9,0-10.69,14.26-1.19,14.26,4.75,1.19,9.51,1.19,14.26,1.19,9.51,1.23,13.07-13.08,2.38-15.45Z"/>
    <path class="cls-1" d="M444.54,114.54c4.75,0,10.69-1.23,15.47-1.23,9.51-2.38,8.32-15.45-1.21-15.45-5.94,0-10.69,1.19-15.45,2.37-10.71,1.19-7.15,15.45,1.19,14.31Z"/>
    <path class="cls-1" d="M460.01,756.79c-4.77,0-9.53,0-14.28-1.18-9.53-1.19-11.9,13.07-2.38,15.44,5.94,0,10.69,1.19,15.45,1.19,11.9,0,10.72-15.45,1.21-15.45Z"/>
    <path class="cls-1" d="M726.43,195.38c-7.13-5.94-17.87,4.75-10.69,11.92,3.56,2.38,7.12,5.95,9.5,9.51,8.32,8.32,17.83-3.56,11.88-9.51-3.56-3.6-7.12-7.17-10.69-11.92Z"/>
    <path class="cls-1" d="M401.72,747.29c-4.75-1.19-9.52-2.38-13.09-4.76-8.31-2.37-15.44,10.7-4.75,15.45l14.28,3.57c11.88,2.37,11.88-13.08,3.56-14.26Z"/>
    <path class="cls-1" d="M283.98,183.5c3.56-2.38,7.13-5.95,11.88-8.32,7.13-4.76,0-19.06-9.5-13.08-3.57,3.57-8.34,7.14-11.91,9.51-8.31,8.32,3.57,17.83,9.53,11.89Z"/>
    <path class="cls-1" d="M332.74,151.38c4.75-2.38,8.32-4.76,13.07-7.13,9.52-5.94,2.37-17.83-5.94-14.26-4.75,2.37-9.51,4.75-14.28,7.13-9.51,5.94-1.19,19.01,7.15,14.26Z"/>
    <path class="cls-1" d="M346.99,727.04l-13.07-7.13c-8.34-4.75-16.66,8.32-7.13,13.07,4.76,2.38,8.32,4.8,13.07,7.18,10.72,4.75,15.47-10.74,7.13-13.12Z"/>
    <path class="cls-1" d="M387.44,127.61c4.76-1.19,9.53-2.38,14.28-4.76,9.51-3.56,4.76-15.48-4.75-14.3-4.77,1.19-9.53,3.57-14.28,4.76-10.69,3.6-3.56,17.86,4.75,14.3Z"/>
    <path class="cls-1" d="M257.79,82.41l-8.77,4.38-5.48-9.15c-1.19-1.18-3.57-2.37-4.76-1.18l-11.9,7.13c-1.19,1.19-2.38,3.56-1.19,4.75l5.35,8.91-8.91,5.35c-2.37,1.19-2.37,2.38-1.18,4.76l7.13,11.92c0,1.19,2.37,2.38,3.56,1.19l9.81-5.91,5.66,9.47c0,2.38,2.37,2.38,3.56,1.19l11.9-7.13c2.38,0,2.38-2.42,1.19-3.56l-4.51-9.94,9.27-5.55c1.19,0,1.19-2.38,1.19-3.57l-7.13-11.88c-1.19-2.38-3.59-2.38-4.77-1.19ZM238.78,83.6l4.76,7.13-7.15,3.56-3.57-7.13,5.96-3.56ZM231.63,113.31l-3.56-7.13,5.94-3.57,3.58,7.13-5.96,3.57ZM243.44,106l-3.11-6.22,6.17-3.7,3.56,5.94-6.62,3.98ZM250.66,118.1l-3.56-5.98,5.94-3.57,3.57,5.99-5.94,3.56ZM255.42,99.05l-3.57-5.95,5.94-3.56,4.77,5.94-7.15,3.57Z"/>
    <path class="cls-1" d="M87.72,273.9c-7.16,0-14.28,3.56-17.85,8.32-4.75,4.75-8.32,10.73-8.32,17.86s3.57,13.08,8.32,17.83c3.57,4.75,10.69,7.13,17.85,7.13s13.07-2.38,17.84-7.13c4.75-4.75,7.13-10.7,7.13-17.83s-2.38-13.11-7.13-17.86c-4.77-4.76-10.71-8.32-17.84-8.32ZM94.85,307.2c-2.38,2.38-4.76,3.57-7.13,3.57-3.57,0-5.97-1.19-7.16-3.57-2.37-1.19-3.56-4.75-3.56-7.13,0-3.56,1.19-5.94,3.56-7.13,1.19-2.42,3.59-3.6,7.16-3.6,2.37,0,4.75,1.18,7.13,3.6,2.37,1.19,3.56,3.57,3.56,7.13,0,2.38-1.19,5.94-3.56,7.13Z"/>
    <path class="cls-1" d="M785.17,251.89c-7.16,0-14.28,3.56-17.85,8.32-4.75,4.75-8.32,10.73-8.32,17.86s3.57,13.08,8.32,17.83c3.57,4.75,10.69,7.13,17.85,7.13s13.07-2.38,17.84-7.13c4.75-4.75,7.13-10.7,7.13-17.83s-2.38-13.11-7.13-17.86c-4.77-4.76-10.71-8.32-17.84-8.32ZM792.3,285.19c-2.38,2.38-4.76,3.57-7.13,3.57-3.57,0-5.97-1.19-7.16-3.57-2.37-1.19-3.56-4.75-3.56-7.13,0-3.56,1.19-5.94,3.56-7.13,1.19-2.42,3.59-3.6,7.16-3.6,2.37,0,4.75,1.18,7.13,3.6,2.37,1.19,3.56,3.57,3.56,7.13,0,2.38-1.19,5.94-3.56,7.13Z"/>
  </g>
</svg>