<?xml version="1.0" encoding="UTF-8"?>
<svg id="Layer_1" data-name="Layer 1" xmlns="http://www.w3.org/2000/svg" viewBox="0 0 1277.58 1500">
  <defs>
    <style>
      .cls-1 {
        fill: #2e8555;
      }
    </style>
  </defs>
  <path class="cls-1" d="M1086.07,971.45l-45.79-26.44c-60.69,60.47-144.34,97.91-236.57,97.91-184.91,0-335.35-150.43-335.35-335.34s150.44-335.35,335.35-335.35c104.15,0,197.35,47.73,258.91,122.46l23.45-13.54,66.57-38.43c-80.13-105.3-206.7-173.44-348.93-173.44-241.69,0-438.31,196.62-438.31,438.31,0,105.97,38.23,206.37,107.63,282.71l12.09,13.3-39.34,39.33h-56.26L56.72,1375.72l78.84,78.84,332.81-332.81v-56.27l39.33-39.33,13.3,12.09c76.35,69.41,176.76,107.63,282.72,107.63,130.44,0,247.68-57.34,328.04-148.06l-45.68-26.37Z"/>
  <g>
    <circle class="cls-1" cx="1008.82" cy="764.04" r="57.64"/>
    <path class="cls-1" d="M1008.82,839.7c-41.72,0-75.66-33.94-75.66-75.66,0-22.74,10.1-43.15,26.03-57.03-13.84-6.61-29.33-10.31-45.69-10.31-58.63,0-106.15,47.53-106.15,106.15s47.53,106.15,106.15,106.15c45.72,0,84.69-28.91,99.63-69.44-1.43.08-2.87.13-4.32.13Z"/>
    <circle class="cls-1" cx="989.76" cy="552.41" r="38.43"/>
    <path class="cls-1" d="M885.35,644.32c6.58,10.38,11.44,21.75,14.41,33.68,4.37-.46,8.75-.7,13.14-.7,22.18,0,43.95,5.92,63.07,17.16,22.81-11,49.6-9.92,71.46,2.88,17.8-34.49,10.26-76.63-18.41-102.8-23.12,21.71-59.47,20.57-81.18-2.55-3.87-4.12-7.11-8.79-9.62-13.86-28.03,11.24-48.1,36.37-52.88,66.18Z"/>
    <path class="cls-1" d="M749.58,533.2c-13.07,0-25.74-4.46-35.93-12.64-29.01,36.19-38.6,84.23-25.7,128.78,31.32-55.39,101.61-74.9,156.99-43.58,9.26,5.24,17.75,11.73,25.23,19.3,9.87-30.15,32.81-54.25,62.45-65.6-1.7-12.88,1.13-25.95,7.99-36.98-27.22-35.55-69.41-56.44-114.18-56.54-6.64.06-13.27.57-19.85,1.53,4.7,31.25-16.83,60.39-48.08,65.09-2.95.44-5.94.66-8.93.63Z"/>
    <path class="cls-1" d="M788.01,802.2c.11-56.59,38.23-106.04,92.93-120.56-11-42.28-49.24-71.73-92.93-71.58-45.58.26-84.79,32.33-94.09,76.95,47.59.94,85.41,40.29,84.47,87.89-.18,8.91-1.73,17.74-4.62,26.17,4.71.73,9.47,1.11,14.24,1.13Z"/>
    <path class="cls-1" d="M653.51,629.27c3.65.03,7.29.27,10.9.71-.83-6.61-1.27-13.26-1.3-19.93,0-34.48,10.95-68.08,31.27-95.94-.82,0-1.63-.13-2.45-.13-47.6-.15-86.32,38.32-86.47,85.92-.04,13.13,2.92,26.09,8.65,37.9,12.37-5.62,25.8-8.53,39.39-8.54Z"/>
    <circle class="cls-1" cx="749.58" cy="475.56" r="38.43"/>
    <path class="cls-1" d="M789.64,821.34c-.55,0-1.08.08-1.62.08-7.63-.08-15.24-.92-22.71-2.5-14.72,23.72-40,38.86-67.85,40.65,3.57,8.86,8.75,16.98,15.28,23.94,18.69-25.69,54.67-31.36,80.36-12.67,8.31,6.05,14.85,14.21,18.94,23.64,3.34-2.25,6.5-4.75,9.44-7.5-16.94-18.2-28.03-41.07-31.84-65.64Z"/>
    <path class="cls-1" d="M597.52,647.44c-7.18-14.29-11-30.03-11.19-46.03-22.38,4.57-38.46,24.24-38.5,47.07-.03,14.61,6.66,28.43,18.14,37.47,6.97-15.38,17.85-28.66,31.55-38.51Z"/>
    <path class="cls-1" d="M816.67,914.21c.06,1.1.16,2.17.16,3.28-.01,5.15-.72,10.27-2.1,15.23,26.78,20.22,64.37,17.6,88.09-6.13-24.55-1.97-47.96-11.2-67.25-26.51-5.69,5.48-12.04,10.22-18.9,14.13Z"/>
    <path class="cls-1" d="M607.88,794.07c-4.64,5.53-7.55,12.57-7.55,20.35,0,17.57,14.25,31.82,31.82,31.82,3.64,0,7.11-.65,10.37-1.77-17.02-11.87-29.54-29.68-34.64-50.4Z"/>
    <circle class="cls-1" cx="691.94" cy="773.38" r="67.25"/>
    <circle class="cls-1" cx="759.19" cy="917.48" r="38.43"/>
    <path class="cls-1" d="M559.08,706.6c1.16-5.87,2.88-11.51,5.04-16.91-25.56,2.2-45.64,23.61-45.64,49.75,0,27.6,22.37,49.97,49.97,49.97,4.13,0,8.12-.56,11.96-1.5-19.09-22.11-27.18-51.8-21.33-81.3Z"/>
    <path class="cls-1" d="M674.15,688.77c.66-4.48,1.58-8.92,2.78-13.3-3.58-8.22-6.47-16.72-8.65-25.41-41.55-8.24-81.92,18.76-90.16,60.31-5.67,28.56,5.33,57.87,28.39,75.65-7.09-45.29,22.72-88.14,67.64-97.26Z"/>
    <path class="cls-1" d="M703.8,901.7c-12.74-11.74-22.08-26.69-27.05-43.28-11.25-2-21.98-6.23-31.58-12.43-7.44,40.7,18.67,79.98,59.07,88.87-3.43-10.77-3.58-22.31-.44-33.16Z"/>
    <path class="cls-1" d="M624.7,865.05c-24.72-3.63-43.77-24.91-43.77-50.62,0-7.26,1.62-14.42,4.64-21.02-4.52-4.48-8.52-9.35-12.01-14.52-11.52,12.07-18.63,28.38-18.63,46.38,0,37.14,30.11,67.25,67.25,67.25,2.69,0,5.32-.2,7.93-.51-3.02-8.57-4.92-17.62-5.41-26.96Z"/>
  </g>
  <g>
    <path class="cls-1" d="M285.44,1005.12c-10.91-17.47-34.95-2.18-24,13.16,4.36,8.73,8.72,15.28,15.27,24,8.73,15.27,32.78,0,21.82-15.28-4.36-6.54-8.73-15.35-13.09-21.89Z"/>
    <path class="cls-1" d="M346.6,319.33l17.46-19.63c13.09-13.11-6.54-32.81-19.64-19.72-6.59,6.61-13.14,13.16-19.68,21.89-10.91,10.91,6.55,32.74,21.86,17.46Z"/>
    <path class="cls-1" d="M283.25,406.69c4.37-6.55,10.92-15.28,15.28-21.83,8.77-17.44-15.28-30.63-24-15.28-4.37,8.74-8.73,15.28-15.28,24.02-8.77,15.28,15.28,28.37,24,13.09Z"/>
    <path class="cls-1" d="M936.3,127.16c8.74,2.19,17.47,4.35,26.19,8.72,15.35,4.37,26.28-21.89,8.74-28.44-8.74-2.18-19.65-4.35-28.37-6.54-19.62-4.37-21.83,24.07-6.55,26.26Z"/>
    <path class="cls-1" d="M1038.94,162.06c8.74,4.37,17.53,8.74,24.09,13.09,15.28,6.55,30.54-15.26,13.07-26.18-8.72-4.35-17.44-8.72-26.26-10.91-17.45-8.72-26.18,17.46-10.9,24Z"/>
    <path class="cls-1" d="M211.17,612.03c2.18-10.98,4.36-19.72,4.36-28.44,4.36-17.46-24-21.82-26.19-4.35-2.18,8.72-4.37,17.44-4.37,28.35-4.36,17.53,24.01,21.91,26.19,4.44Z"/>
    <path class="cls-1" d="M204.63,719.04v-26.19c0-19.72-28.37-19.72-28.37,0v28.35c0,15.28,28.37,17.46,28.37-2.17Z"/>
    <path class="cls-1" d="M239.57,904.66c-8.72-17.46-32.77-6.54-26.22,10.9,2.19,8.75,6.55,17.54,8.77,26.28,6.55,17.45,32.73,6.54,26.18-10.99-2.18-8.73-6.55-17.45-8.73-26.19Z"/>
    <path class="cls-1" d="M217.72,828.22c-2.18-8.74-4.37-19.65-6.55-28.37-2.18-17.46-30.55-13.09-26.19,4.35,0,10.92,2.18,19.65,4.37,28.37,2.19,17.46,30.55,15.28,28.37-4.35Z"/>
    <path class="cls-1" d="M222.12,470.04c-4.4,8.74-6.58,17.46-10.95,26.19-6.54,17.46,21.86,28.44,26.22,8.74,4.36-6.56,6.54-15.28,10.91-24,6.55-17.46-19.64-28.37-26.18-10.92Z"/>
    <path class="cls-1" d="M1172.21,210.15c-6.55-6.55-15.27-10.99-21.83-17.53-17.53-10.91-30.61,15.35-15.35,24.09,6.63,4.35,13.16,8.72,21.91,15.26,17.44,10.92,28.34-15.26,15.27-21.82Z"/>
    <path class="cls-1" d="M859.86,85.62h-28.37c-21.86,0-19.63,26.18-2.18,26.18,8.72,2.18,17.46,2.18,26.18,2.18,17.46,2.26,24-24.02,4.37-28.37Z"/>
    <path class="cls-1" d="M720.09,116.25c8.73,0,19.64-2.26,28.4-2.26,17.46-4.37,15.28-28.37-2.22-28.37-10.91,0-19.64,2.18-28.37,4.35-19.68,2.19-13.13,28.37,2.18,26.28Z"/>
    <path class="cls-1" d="M748.49,1295.63c-8.77,0-17.5,0-26.22-2.17-17.5-2.19-21.86,24-4.37,28.35,10.92,0,19.64,2.19,28.37,2.19,21.86,0,19.68-28.37,2.22-28.37Z"/>
    <path class="cls-1" d="M1237.74,264.7c-13.1-10.91-32.82,8.72-19.63,21.89,6.54,4.37,13.08,10.92,17.45,17.46,15.28,15.28,32.73-6.54,21.81-17.46-6.54-6.61-13.07-13.16-19.63-21.89Z"/>
    <path class="cls-1" d="M641.46,1278.19c-8.73-2.19-17.49-4.37-24.04-8.74-15.27-4.36-28.36,19.65-8.72,28.37l26.22,6.55c21.82,4.36,21.82-24.01,6.54-26.18Z"/>
    <path class="cls-1" d="M425.24,242.89c6.55-4.37,13.09-10.92,21.82-15.28,13.09-8.74,0-35-17.45-24.02-6.55,6.55-15.31,13.11-21.87,17.46-15.27,15.28,6.55,32.74,17.5,21.83Z"/>
    <path class="cls-1" d="M514.78,183.9c8.73-4.37,15.28-8.74,24.01-13.09,17.49-10.91,4.36-32.74-10.91-26.19-8.72,4.35-17.45,8.72-26.22,13.09-17.45,10.91-2.18,34.91,13.13,26.19Z"/>
    <path class="cls-1" d="M540.96,1241.01l-24-13.1c-15.31-8.72-30.59,15.28-13.09,24,8.73,4.37,15.28,8.81,24,13.18,19.68,8.73,28.4-19.71,13.09-24.08Z"/>
    <path class="cls-1" d="M615.23,140.25c8.73-2.19,17.49-4.37,26.22-8.74,17.46-6.54,8.73-28.42-8.73-26.26-8.76,2.18-17.49,6.55-26.22,8.74-19.64,6.61-6.54,32.8,8.73,26.26Z"/>
    <path class="cls-1" d="M377.16,57.26l-16.11,8.05-10.07-16.8c-2.19-2.16-6.55-4.35-8.73-2.16l-21.86,13.09c-2.19,2.18-4.36,6.54-2.19,8.72l9.82,16.37-16.37,9.82c-4.36,2.18-4.36,4.37-2.18,8.74l13.09,21.89c0,2.18,4.36,4.37,6.55,2.18l18.01-10.85,10.4,17.38c0,4.37,4.36,4.37,6.54,2.18l21.86-13.09c4.36,0,4.36-4.44,2.18-6.54l-8.29-18.25,17.02-10.19c2.18,0,2.18-4.37,2.18-6.55l-13.09-21.81c-2.18-4.37-6.59-4.37-8.77-2.19ZM342.25,59.44l8.73,13.09-13.14,6.54-6.55-13.09,10.95-6.54ZM329.12,113.99l-6.55-13.09,10.91-6.55,6.58,13.09-10.94,6.55ZM350.81,100.56l-5.71-11.42,11.33-6.8,6.54,10.91-12.16,7.31ZM364.07,122.79l-6.54-10.98,10.9-6.55,6.55,11-10.91,6.54ZM372.8,87.81l-6.56-10.92,10.92-6.54,8.77,10.91-13.12,6.55Z"/>
    <path class="cls-1" d="M64.86,408.88c-13.14,0-26.23,6.54-32.78,15.28-8.72,8.72-15.28,19.7-15.28,32.79s6.56,24.02,15.28,32.74c6.55,8.72,19.64,13.09,32.78,13.09s24-4.37,32.77-13.09c8.73-8.72,13.09-19.65,13.09-32.74s-4.36-24.07-13.09-32.79c-8.77-8.74-19.67-15.28-32.77-15.28ZM77.95,470.04c-4.37,4.37-8.73,6.56-13.09,6.56-6.56,0-10.95-2.18-13.14-6.56-4.36-2.19-6.54-8.72-6.54-13.09,0-6.54,2.18-10.91,6.54-13.09,2.18-4.44,6.58-6.61,13.14-6.61,4.36,0,8.72,2.17,13.09,6.61,4.36,2.18,6.55,6.55,6.55,13.09,0,4.37-2.19,10.91-6.55,13.09Z"/>
    <path class="cls-1" d="M863.33,1249.57c-13.14,0-26.23,6.54-32.78,15.28-8.72,8.72-15.28,19.7-15.28,32.79s6.56,24.02,15.28,32.74c6.55,8.72,19.64,13.09,32.78,13.09s24-4.37,32.77-13.09c8.73-8.72,13.09-19.65,13.09-32.74s-4.36-24.07-13.09-32.79c-8.77-8.74-19.67-15.28-32.77-15.28ZM876.42,1310.73c-4.37,4.37-8.73,6.56-13.09,6.56-6.56,0-10.95-2.18-13.14-6.56-4.36-2.19-6.54-8.72-6.54-13.09,0-6.54,2.18-10.91,6.54-13.09,2.18-4.44,6.58-6.61,13.14-6.61,4.36,0,8.72,2.17,13.09,6.61,4.36,2.18,6.55,6.55,6.55,13.09,0,4.37-2.19,10.91-6.55,13.09Z"/>
  </g>
</svg>